<?xml version="1.0" encoding="utf-8"?>
<!-- Generator: Adobe Illustrator 25.2.0, SVG Export Plug-In . SVG Version: 6.00 Build 0)  -->
<svg version="1.1" id="Layer_1" xmlns="http://www.w3.org/2000/svg" xmlns:xlink="http://www.w3.org/1999/xlink" x="0px" y="0px"
	 viewBox="0 0 236.5 185.4" style="enable-background:new 0 0 236.5 185.4;" xml:space="preserve">
<style type="text/css">
	.st0{fill:#7B9568;}
</style>
<g>
	<g>
		<path class="st0" d="M189.1,66.1c0,1.6-1,2.7-2.1,3.7c0,0-19.4,19.7-29.3,29.6c-7.3,7.3-14.6,14.7-21.8,22.1
			c-6.5,6.6-13,13.1-19.5,19.7c-1.6,1.7-2.9,2.4-4,2.4c-1.1,0-2.4-0.7-4.1-2.4c-8.6-8.5-17.2-17-25.7-25.6l-8.4-8.4
			c-0.1-0.1-0.2-0.2-0.3-0.3c-0.3-0.3-0.6-0.6-0.9-0.9c-1.6-1.8-1.6-3.9,0-5.4c0.8-0.8,1.8-1.3,2.7-1.3c1,0,2,0.4,2.9,1.3
			c2.5,2.4,5,4.9,7.5,7.3c1,1,2.1,2.1,3.1,3.1c1.9,1.8,3.7,3.7,5.6,5.5c5,4.9,10.2,10,15.3,15.2c0.9,1,1.7,1.4,2.4,1.4
			c0.9,0,1.6-0.6,2.5-1.4c13.2-13.4,26.7-26.9,39.7-40c5.5-5.6,24.8-25.2,27-27.5c1.3-1.3,2.4-1.9,3.5-1.9c0.5,0,1,0.1,1.5,0.3
			C188.2,63.1,189,64.3,189.1,66.1z"/>
	</g>
	<g>
		<path class="st0" d="M183,83.8c-1.9,1.9-3.7,3.8-5.6,5.6c2.4,6.7,3.7,13.9,3.7,21.4c0,34.9-28.4,63.2-63.2,63.2
			c-34.9,0-63.2-28.4-63.2-63.2c0-34.9,28.4-63.2,63.2-63.2c19.2,0,36.5,8.6,48,22.2c0.2-0.2,0.4-0.4,0.6-0.6c1.5-1.5,3-3.1,4.5-4.6
			c-12.9-14.9-32-24.3-53.2-24.3c-38.9,0-70.5,31.6-70.5,70.5c0,38.9,31.6,70.5,70.5,70.5c38.9,0,70.5-31.6,70.5-70.5
			C188.4,101.2,186.5,92.1,183,83.8z"/>
	</g>
</g>
</svg>
