<?xml version="1.0" encoding="utf-8"?>
<!-- Generator: Adobe Illustrator 25.2.0, SVG Export Plug-In . SVG Version: 6.00 Build 0)  -->
<svg version="1.1" id="Layer_1" xmlns="http://www.w3.org/2000/svg" xmlns:xlink="http://www.w3.org/1999/xlink" x="0px" y="0px"
	 viewBox="0 0 1159 375" style="enable-background:new 0 0 1159 375;" xml:space="preserve">
<style type="text/css">
	.st0{fill:none;}
	.st1{fill:#FEFEFE;}
	.st2{fill:#EA8535;}
	.st3{fill:#C75293;}
	.st4{fill:#C4438C;}
	.st5{fill:#EB893A;}
	.st6{fill:#C75092;}
	.st7{fill:#EB8A3C;}
	.st8{fill:#F59190;}
	.st9{fill:#EB8B3E;}
	.st10{fill:#EC8E43;}
	.st11{fill:#EB8C40;}
	.st12{fill:#C85795;}
	.st13{fill:#C64D91;}
	.st14{fill:#C75494;}
	.st15{fill:#EB8A3D;}
	.st16{fill:#C64C90;}
	.st17{fill:#C75393;}
	.st18{fill:#EB8C41;}
	.st19{fill:#EB8D41;}
	.st20{fill:#F59291;}
	.st21{fill:#C95E98;}
	.st22{fill:#EA8737;}
	.st23{fill:#C75394;}
	.st24{fill:#EB8839;}
	.st25{fill:#EA8636;}
	.st26{fill:#EA8738;}
	.st27{fill:#C75193;}
	.st28{fill:#C5498F;}
	.st29{fill:#C54A90;}
	.st30{fill:#EA8331;}
	.st31{fill:#F5908F;}
	.st32{fill:#C75192;}
	.st33{fill:#F58E8D;}
	.st34{fill:#C5478E;}
	.st35{fill:#EB883A;}
	.st36{fill:#F58C8C;}
	.st37{fill:#E98230;}
	.st38{fill:#E9822F;}
	.st39{fill:#C5468E;}
	.st40{fill:#EA8433;}
	.st41{fill:#C64B90;}
	.st42{fill:#EA8635;}
</style>
<rect y="0" class="st0" width="1159" height="375"/>
<g>
	<g>
		<path class="st1" d="M711,0.1c147.8,0,295.6,0,443.3-0.1c3.6,0,4.7,0.6,4.7,4.5c-0.1,121.9-0.1,243.8,0,365.7
			c0,3.5-0.4,4.8-4.4,4.8c-383.4-0.1-766.7-0.1-1150.1,0c-3.3,0-4.5-0.4-4.5-4.2C0.1,248.5,0.1,126.2,0,4c0-3.6,1-4,4.2-4
			C178.1,0.1,352.1,0.1,526,0.1c0.3,0.3,0.6,0.7,0.9,1.2c0.6,1.1,0.5,2.8,2.1,2.8c1.6,0,1.6-1.7,2.1-2.8c0.2-0.4,0.5-0.8,0.9-1.2
			c20,0,40,0,60,0c1.1,1.5-1.9,5,1.7,4.9c2.9-0.1,0.3-3.3,1.3-4.9c38,0,76,0,114,0c0.5,0.8,0.3,1.6,0.1,2.4
			c-0.3,1.1-0.5,2.3,0.9,2.9c0.7,0.3,1.3,0.1,1.8-0.4c1-1.2,0.1-2.1-0.4-3.1C711,1.3,710.6,0.8,711,0.1z"/>
		<path class="st2" d="M711,0.1c0.2,1.4,2,1.1,2.5,2.2c0.7,1.4,0.9,2.9-0.2,4.1c-1.3,1.4-3,1.4-4.5,0.6c-1.5-0.8-1.9-2.3-1.2-3.8
			c0.4-1,1-2,1.5-3C709.6,0.1,710.3,0.1,711,0.1z"/>
		<path class="st3" d="M595,0.1c1.8,2,3.2,4.1,0.3,6.2c-1.8,1.4-3.5,0.7-4.7-1c-1.5-2.2,0.1-3.7,1.4-5.2C593,0.1,594,0.1,595,0.1z"
			/>
		<path class="st4" d="M532,0.1c0.2,1.9,0.9,4-1.1,5.4c-1.1,0.8-2.5,0.7-3.7,0c-2.1-1.4-1.1-3.5-1.3-5.3C528,0.1,530,0.1,532,0.1z"
			/>
		<path class="st5" d="M730.2,218.8c-2-0.5-3.2-1.9-3-3.9c0.2-2.1,1.5-3.2,3.7-2.9c2,0.3,3,1.4,2.8,3.4
			C733.5,217.4,732.3,218.6,730.2,218.8z"/>
		<path class="st3" d="M865.3,13.3c2.1,0.4,3.4,1.5,3.3,3.6c-0.1,1.7-0.9,3.2-3.1,3.1c-2.1,0-3.5-0.9-3.6-3.2
			C861.9,14.6,863.5,13.8,865.3,13.3z"/>
		<path class="st6" d="M384.8,357.9c-0.4,2-1.4,3.2-3.7,3.1c-2.4-0.1-3.1-1.6-3-3.7c0.1-1.9,1.4-3.1,3.3-3
			C383.4,354.5,384.8,355.6,384.8,357.9z"/>
		<path class="st7" d="M41.2,180.9c-2.2,0-3.6-1.1-3.8-3.2c-0.1-2.2,1.3-3.4,3.4-3.5c1.7,0,3.2,0.9,3.3,2.9
			C44.2,179.2,43.2,180.5,41.2,180.9z"/>
		<path class="st8" d="M643.3,86.8c-2-0.5-3.4-1.6-3.1-3.8c0.3-2,1.5-3.2,3.8-3c2,0.2,2.9,1.6,2.9,3.4
			C646.8,85.7,645.3,86.6,643.3,86.8z"/>
		<path class="st9" d="M348.8,57.3c-0.3,2-1.2,3.5-3.4,3.6c-2.2,0.1-3.4-1-3.5-3.2c-0.1-2,1.1-3.1,2.9-3.3
			C346.9,54.2,348.3,55.2,348.8,57.3z"/>
		<path class="st10" d="M710.2,96.7c-0.6,2.2-1.7,3.6-3.9,3.3c-1.8-0.2-3.1-1.4-3-3.3c0.1-2.1,1.4-3.4,3.5-3.4
			C709.1,93.3,709.7,95,710.2,96.7z"/>
		<path class="st11" d="M268.9,14.3c-0.4,2.2-1.3,3.6-3.6,3.5c-2.3-0.1-3.3-1.5-3.3-3.6c0-1.9,1.4-3.1,3.3-3.1
			C267.5,11.1,268.7,12.4,268.9,14.3z"/>
		<path class="st12" d="M210,22.2c-0.1,2-1.1,3.5-3.2,3.7c-2.3,0.2-3.3-1.6-3.4-3.4c-0.1-2.1,1.2-3.4,3.4-3.3
			C208.7,19.1,209.9,20.1,210,22.2z"/>
		<path class="st13" d="M570.6,304.5c1.9,0.4,3.4,1.3,3.3,3.6c-0.1,2.3-1.6,3-3.6,3c-2.1,0-3-1.4-3-3.1
			C567.1,305.7,568.5,304.7,570.6,304.5z"/>
		<path class="st3" d="M697.3,215.1c2.3,0.2,3.3,1.6,3.1,3.7c-0.1,1.9-1.3,3.1-3.3,2.9c-1.8-0.2-3.2-1.1-3.1-3.2
			C693.9,216.3,695.1,215.2,697.3,215.1z"/>
		<path class="st9" d="M1040.6,200.1c-1.8-0.4-3.6-0.8-3.6-3.2c0-2.2,1.3-3.4,3.3-3.6c2-0.2,3.1,1.2,3.3,3
			C1044,198.4,1042.7,199.6,1040.6,200.1z"/>
		<path class="st14" d="M102.9,32.5c-0.2,2.1-1.2,3.5-3.3,3.5c-1.7,0-3.2-0.8-3.3-2.9c-0.1-2.1,0.9-3.5,3-3.8
			C101.5,29,102.4,30.6,102.9,32.5z"/>
		<path class="st15" d="M1051.2,10.2c-2.2-0.5-3.6-1.5-3.4-3.7c0.1-1.9,1.3-3.1,3.2-3.1c2,0.1,3.6,1.1,3.6,3.3
			C1054.6,8.9,1052.8,9.7,1051.2,10.2z"/>
		<path class="st16" d="M446,358.6c-0.2,1.9-0.8,3.3-2.9,3.4c-2.1,0.1-3.7-0.7-3.8-3c-0.1-2.2,1.3-3.3,3.4-3.4
			C444.7,355.5,445.6,356.9,446,358.6z"/>
		<path class="st13" d="M464.9,9.9c-0.2,2.1-1.3,3.3-3.5,3.3c-2,0-3.1-1-3.3-2.9c-0.2-2.1,1-3.5,3.1-3.6
			C463.2,6.6,464.6,7.7,464.9,9.9z"/>
		<path class="st17" d="M198.8,76.9c2.1,0.2,3.4,1.3,3.2,3.5c-0.2,2.1-1.5,3.3-3.6,3.2c-1.9-0.1-2.9-1.6-3-3.3
			C195.4,78.3,196.6,77,198.8,76.9z"/>
		<path class="st18" d="M544,79.8c-0.3,1.9-1.5,3.1-3.6,3.1c-2.3-0.1-3.2-1.7-3.1-3.7c0.1-1.9,1.5-3.2,3.3-3
			C542.5,76.3,544.1,77.2,544,79.8z"/>
		<path class="st19" d="M643.3,67.3c2.1,0.2,3.6,1.1,3.6,3.3c0,2.2-1.4,3.3-3.5,3.4c-2,0.1-3.1-1.4-3.3-3.1
			C639.9,68.7,641.2,67.6,643.3,67.3z"/>
		<path class="st20" d="M337.1,66.9c-0.1,2.3-1.1,3.9-3.2,3.8c-1.8-0.1-3.6-1.1-3.5-3.3c0.1-2,1.4-3.2,3.6-3.3
			C336,64,336.8,65.3,337.1,66.9z"/>
		<path class="st19" d="M501.6,174.1c2,0.5,3.3,1.6,3,3.7c-0.2,1.7-1.2,3.2-3.2,3c-2.1-0.1-3.4-1.3-3.4-3.5
			C498,175.1,499.7,174.4,501.6,174.1z"/>
		<path class="st5" d="M439.1,326.2c-0.4,2.2-1.4,3.7-3.6,3.5c-1.9-0.2-3.4-1.4-3.3-3.5c0.1-1.9,1.6-3,3.3-3
			C437.6,323,438.8,324.3,439.1,326.2z"/>
		<path class="st21" d="M317.1,262.7c-0.8,2.1-1.9,3.6-4.1,3.2c-2.1-0.4-3.1-1.9-2.7-4c0.3-1.8,1.6-2.9,3.5-2.7
			C316.1,259.4,316.7,261.1,317.1,262.7z"/>
		<path class="st22" d="M57,251.9c0,2.1-1,3.1-3,3.2c-2.2,0.1-3.6-0.8-3.6-3.1c0-1.8,1-3.2,3-3.3C55.5,248.7,56.8,249.8,57,251.9z"
			/>
		<path class="st23" d="M1094.2,218.3c1.8,0.5,3.7,0.9,3.5,3.3c-0.2,2.1-1.5,3.3-3.6,3.3c-2.2,0-3.2-1.6-3.1-3.6
			C1091,219.5,1092.3,218.5,1094.2,218.3z"/>
		<path class="st22" d="M333.9,205.3c0,2.6-1.1,3.7-3.3,3.8c-2.3,0.1-3.3-1.5-3.3-3.4c0-1.6,1-3.2,3-3.2
			C332.4,202.5,333.7,203.5,333.9,205.3z"/>
		<path class="st24" d="M177.5,180.4c2,0.5,3.4,1.6,3.2,3.7c-0.2,2-1.6,3.2-3.8,3c-1.9-0.2-3-1.5-2.9-3.4
			C174.2,181.8,175.3,180.5,177.5,180.4z"/>
		<path class="st16" d="M1093,39.3c0.1-2.1,1.2-3.4,3.4-3.4c1.9,0,3.2,1.1,3.4,3c0.2,2.3-1.1,3.3-3.3,3.3
			C1094.4,42.3,1093.2,41.4,1093,39.3z"/>
		<path class="st13" d="M1036,13.7c0.3-2.2,1.8-3,3.8-2.9c2,0.2,3.1,1.4,2.9,3.3c-0.2,1.8-1.4,3.1-3.3,3.1
			C1037.3,17.2,1036,16,1036,13.7z"/>
		<path class="st25" d="M56.8,127.5c2.1,0.2,3.3,1.4,3.3,3.5c-0.1,1.8-1,3.1-3,3.1c-2.2,0.1-3.5-1-3.6-3.2
			C53.4,128.8,54.8,127.9,56.8,127.5z"/>
		<path class="st26" d="M1069.1,154.8c-0.2,2-1.6,3-3.4,3c-2.2,0-3.3-1.4-3.1-3.6c0.2-1.9,1.3-3.1,3.3-3
			C1068.2,151.2,1069,152.8,1069.1,154.8z"/>
		<path class="st9" d="M799,154.5c-0.3,2.4-1.6,3.5-3.7,3.4c-2-0.1-3.1-1.4-3-3.2c0.1-1.9,1-3.6,3.3-3.5
			C797.8,151.2,798.6,152.8,799,154.5z"/>
		<path class="st6" d="M86.3,135.4c-0.2,2.5-1.3,3.6-3.5,3.5c-2.1-0.1-2.8-1.4-2.8-3.3c0-1.9,0.9-3.3,2.9-3.3
			C84.9,132.3,86.2,133.5,86.3,135.4z"/>
		<path class="st27" d="M76.9,35.6c-0.4,2.3-1.5,3.5-3.7,3.5c-2,0-3-1.3-3-3.1c0-2.2,1.4-3.3,3.5-3.2C75.6,32.9,76.6,34,76.9,35.6z"
			/>
		<path class="st28" d="M982.1,176.8c1.4-0.1,2.5,1.1,2.6,3c0.1,2.1-1,3.4-3.3,3.4c-1.9-0.1-3.2-0.9-3.3-2.9
			C978,177.9,979.2,176.8,982.1,176.8z"/>
		<path class="st29" d="M402.6,27c1.9,0,3.3,0.7,3.4,2.8c0.1,2.1-0.9,3.6-3,3.9c-2.4,0.3-3.1-1.5-3.2-3.5
			C399.6,28.3,400.6,27.1,402.6,27z"/>
		<path class="st16" d="M411.5,64.8c2.2,0.1,3.4,1.1,3.4,3.4c0,2.1-1.2,3-3.1,3.1c-2,0.1-3.3-0.9-3.5-2.8
			C408.2,66.4,409.2,64.9,411.5,64.8z"/>
		<path class="st30" d="M436.2,30.3c-2-0.2-3.6-1.2-3.7-3.3c-0.1-1.8,1.3-3.2,3.1-3.4c2.2-0.3,3.4,1.2,3.5,3.2
			C439.3,28.8,438.2,30,436.2,30.3z"/>
		<path class="st31" d="M363,57.7c0.1,2.9-1.1,4-3.2,4.2c-2.1,0.2-2.9-1.2-3-3.1c-0.1-1.9,0.6-3.4,2.6-3.5
			C361.4,55.1,362.9,56,363,57.7z"/>
		<path class="st32" d="M83.2,114.7c-0.5,1.9-1.3,3.5-3.5,3.4c-1.9-0.1-3-1.3-3.2-3.2c-0.2-2.4,1.3-3.2,3.4-3.2
			C81.8,111.8,82.8,112.9,83.2,114.7z"/>
		<path class="st33" d="M366.3,105.4c-0.1,2-1.2,3.2-3.1,3.1c-2.1-0.1-3.3-1.6-3.1-3.7c0.1-2,1.4-3,3.4-2.8
			C365.4,102.2,366.2,103.6,366.3,105.4z"/>
		<path class="st28" d="M570.3,102c0.1,2-0.8,3.3-2.8,3.4c-2,0-3.6-1-3.6-3.3c0-2.2,1.3-3.3,3.5-3.3
			C569.6,98.9,570.3,100.1,570.3,102z"/>
		<path class="st34" d="M607,73.9c0-2.2,1.2-3.4,3.3-3.3c2,0,3,1.2,3,3.1c0,2.1-1,3.5-3.3,3.3C608.1,76.9,607.1,75.8,607,73.9z"/>
		<path class="st26" d="M1075.9,10.7c-0.3,2.1-1.4,3.4-3.6,3.3c-1.9-0.1-2.9-1.5-2.9-3.4c0-1.9,0.8-3.3,2.8-3.3
			C1074.5,7.3,1075.6,8.6,1075.9,10.7z"/>
		<path class="st25" d="M1043,269.8c2.9,0.2,4,1.4,3.9,3.6c-0.1,2-1.4,3-3.3,3c-2.3,0-3.2-1.4-3.1-3.6
			C1040.6,270.8,1041.6,269.7,1043,269.8z"/>
		<path class="st6" d="M619.1,108.2c2.1,0.1,3.1,1.2,3.2,3.1c0.1,2.2-1,3.6-3.1,3.5c-1.8,0-3.2-1.3-3.2-3.1
			C615.8,109.7,617.1,108.5,619.1,108.2z"/>
		<path class="st35" d="M993.3,159.8c0,1.8-0.5,3.3-2.7,3.4c-2.1,0.2-3.6-0.8-3.7-3c-0.1-2.1,1.2-3.4,3.3-3.5
			C992.1,156.7,993.2,157.8,993.3,159.8z"/>
		<path class="st36" d="M174.3,174.6c-1.8-0.4-3-1.4-3.3-3.2c-0.2-1.9,0.8-3.2,2.7-3.4c1.9-0.2,3.3,0.7,3.5,2.6
			C177.4,172.7,176.2,174,174.3,174.6z"/>
		<path class="st30" d="M405.9,46.3c-2.1-0.3-3.5-1.6-3.4-3.6c0.1-1.7,1.5-2.9,3.4-2.9c2.2,0,3.3,1.2,3.2,3.4
			C409,45.2,407.8,46.2,405.9,46.3z"/>
		<path class="st25" d="M1001.3,31.2c-0.1,2-1,3-3.1,3c-2.2,0-3.4-1.2-3.3-3.4c0.1-2.1,1.5-3.3,3.6-3.1
			C1000.4,27.9,1001.3,29.2,1001.3,31.2z"/>
		<path class="st13" d="M998,47c-1.9-0.1-3.1-1.2-3.1-3.1c-0.1-2.2,1.5-3.4,3.5-3.3c1.9,0.1,3,1.3,2.9,3.3
			C1001.1,45.9,1000,47,998,47z"/>
		<path class="st37" d="M151.8,206c-0.8,2.1-1.9,3.5-4.1,3.3c-2-0.2-2.8-1.6-2.8-3.5c0.1-2,1.3-3,3.2-3
			C150.4,202.9,151.3,204.4,151.8,206z"/>
		<path class="st38" d="M251.5,256.7c-0.4,1.9-1.3,3.2-3.3,3.2c-2.2,0-3.4-1.4-3.3-3.5c0.1-2,1.5-2.9,3.4-2.8
			C250.2,253.7,251.4,254.7,251.5,256.7z"/>
		<path class="st39" d="M693.1,348.9c-0.1,2-1.3,3.2-3.4,3.1c-1.9-0.1-3-1.4-3.1-3.2c-0.1-2.3,1.4-3.1,3.5-3.1
			C691.9,345.8,693.1,346.6,693.1,348.9z"/>
		<path class="st40" d="M731.9,352c0.1-2,1-3.4,3.3-3.3c1.9,0,3,1.1,3,3.1c0,2.2-1,3.4-3.2,3.4C733.1,355.1,732,354,731.9,352z"/>
		<path class="st41" d="M1072.7,68.1c-2-0.2-3-1.2-3.1-3.2c-0.1-2,0.7-3.2,2.8-3.2c2.2,0,3.5,1,3.5,3.3
			C1075.8,66.9,1074.6,68,1072.7,68.1z"/>
		<path class="st40" d="M329.8,36.1c0.3-2.1,1.3-3.2,3.2-3.3c2-0.1,3.2,0.9,3.3,2.9c0.1,2.1-1,3.5-3.3,3.4
			C331.1,39,330.1,37.8,329.8,36.1z"/>
		<path class="st30" d="M26.4,202.2c-2.3-0.2-3.6-1.3-3.5-3.5c0.1-1.9,1.3-2.9,3.2-3c2.3-0.1,3.2,1.2,3.2,3.4
			C29.2,201.1,28.1,202,26.4,202.2z"/>
		<path class="st42" d="M425.3,76.6c0,2.3-1.1,3.5-3,3.6c-2.1,0.1-3.6-1.1-3.6-3.3c0-2,1.4-3,3.3-3.1
			C424.1,73.8,425.1,75,425.3,76.6z"/>
		<path class="st34" d="M1043.8,252.1c-2-0.1-3.1-1.1-3.2-3c-0.1-2,0.9-3.2,2.8-3.3c2,0,3.5,0.9,3.5,3.2
			C1046.8,250.9,1045.6,251.9,1043.8,252.1z"/>
	</g>
</g>
</svg>
