<svg width="32" height="33" viewBox="0 0 32 33" fill="none" xmlns="http://www.w3.org/2000/svg">
<path d="M32 14.9404C32 15.9027 32 16.8506 32 17.8129C31.9857 17.856 31.9713 17.9134 31.9713 17.9565C31.9283 18.5597 31.828 19.163 31.6989 19.7518C31.3692 21.2743 30.8387 22.7393 30.0788 24.1037C29.233 25.6405 28.1577 27.005 26.8674 28.1971C25.8351 29.145 24.7025 29.9493 23.4695 30.5957C22.4229 31.1414 21.3477 31.5723 20.2007 31.8739C19.6129 32.0319 19.0108 32.1325 18.4229 32.2617C18.2652 32.2617 18.0932 32.2617 17.9355 32.2617C17.9355 32.2043 17.9211 32.1325 17.9211 32.075C17.9211 28.0535 17.9211 24.0463 17.9211 20.0247C17.9211 19.6513 17.9211 19.6513 18.2939 19.6513C19.3692 19.6513 20.4444 19.6513 21.5054 19.6513C21.6487 19.6513 21.7634 19.6369 21.7921 19.4502C21.8208 19.1773 21.8781 18.9044 21.9068 18.6316C22.0358 17.5974 22.1649 16.549 22.2939 15.5149C22.3226 15.2563 22.3369 15.2563 22.0645 15.2563C20.7599 15.2563 19.4695 15.2563 18.1649 15.2563C18.0072 15.2563 17.9068 15.242 17.9068 15.0409C17.9355 13.935 17.8638 12.829 17.9498 11.7231C18.0072 11.1199 18.2509 10.6316 18.8387 10.3587C19.1685 10.215 19.5125 10.1432 19.8566 10.1432C20.6452 10.1289 21.4194 10.1432 22.2079 10.1432C22.4659 10.1432 22.466 10.1289 22.466 9.87034C22.466 8.73569 22.466 7.60104 22.466 6.45203C22.466 6.20786 22.4516 6.1935 22.2079 6.16477C21.7348 6.12168 21.276 6.06423 20.8029 6.04987C20.2294 6.03551 19.6559 5.99242 19.0824 6.00678C18.2939 6.02114 17.5197 6.13604 16.7599 6.40894C15.8423 6.73928 15.0824 7.28506 14.509 8.06064C13.7204 9.12348 13.4194 10.3443 13.3907 11.6226C13.362 12.7285 13.3907 13.8201 13.3907 14.926C13.3907 15.2276 13.3907 15.2276 13.0753 15.2276C11.9857 15.2276 10.8961 15.2276 9.80645 15.2276C9.56272 15.2276 9.54839 15.2276 9.54839 15.4861C9.54839 16.7788 9.54839 18.0571 9.54839 19.3497C9.54839 19.6226 9.56272 19.6226 9.82079 19.6226C10.9104 19.6226 12 19.6226 13.0896 19.6226C13.3763 19.6226 13.3907 19.6369 13.3907 19.9098C13.3907 23.917 13.3907 27.9098 13.3907 31.917C13.3907 32.1325 13.3763 32.1468 13.1613 32.1181C12 31.917 10.8674 31.5723 9.77778 31.1127C8.63082 30.6244 7.55555 30.0211 6.55197 29.2743C5.51971 28.5274 4.60215 27.6657 3.77061 26.689C2.82437 25.5687 2.03584 24.3479 1.41935 22.9978C0.817203 21.6908 0.401433 20.3264 0.172043 18.9044C0.114695 18.5167 0.0573477 18.1432 0 17.7554C0 16.7931 0 15.8165 0 14.8542C0.0143369 14.8111 0.0286734 14.768 0.0286734 14.7249C0.0716842 14.1073 0.186379 13.5041 0.315412 12.9009C0.630824 11.4359 1.13262 10.0283 1.84946 8.70696C2.59498 7.31378 3.54122 6.04987 4.6595 4.92958C5.77778 3.8093 7.02509 2.86136 8.43011 2.1145C9.99283 1.28147 11.6416 0.706963 13.3907 0.434072C13.7921 0.376622 14.1792 0.319169 14.5806 0.261719C15.5412 0.261719 16.4875 0.261719 17.448 0.261719C17.6918 0.290444 17.9355 0.333534 18.1935 0.362259C19.6702 0.563336 21.0896 0.951126 22.4516 1.55436C24 2.24377 25.4194 3.14861 26.681 4.28326C27.7706 5.25992 28.7168 6.35149 29.5054 7.57231C30.6953 9.43946 31.4982 11.4646 31.8423 13.6621C31.8853 14.1504 31.9427 14.5526 32 14.9404Z" fill="#AE967E"/>
</svg>
