<?xml version="1.0" encoding="utf-8"?>
<!-- Generator: Adobe Illustrator 25.2.0, SVG Export Plug-In . SVG Version: 6.00 Build 0)  -->
<svg version="1.1" id="Layer_1" xmlns="http://www.w3.org/2000/svg" xmlns:xlink="http://www.w3.org/1999/xlink" x="0px" y="0px"
	 viewBox="0 0 843.9 841.8" style="enable-background:new 0 0 843.9 841.8;" xml:space="preserve">
<style type="text/css">
	.st0{fill:#DC0000;}
	.st1{fill:#FECD00;}
</style>
<g>
	<path d="M820,280.7H23C77.5,126.3,219.1,13.1,388.7,0.1h65.7C624,13.1,765.6,126.3,820,280.7z"/>
	<path class="st0" d="M843.9,414.8v12.9c-0.7,46.8-9,91.7-23.7,133.5H22.9C10.5,525.9,2.6,488.4,0.1,449.5V393
		c2.6-39.1,10.5-76.8,23-112.3h797C834.9,322.7,843.2,367.8,843.9,414.8z"/>
	<path class="st1" d="M820.3,561.2c-53.5,152.5-192.1,265-358.8,280.6h-79.8C214.9,826.2,76.4,713.7,22.9,561.2H820.3z"/>
</g>
</svg>
