<svg width="33" height="33" viewBox="0 0 33 33" fill="none" xmlns="http://www.w3.org/2000/svg">
<path d="M16.7589 32.3737C7.93482 32.4025 0.75174 25.1874 0.766135 16.3594C0.766135 7.54574 7.96361 0.345063 16.8021 0.373865C25.5974 0.388267 32.7805 7.57455 32.7661 16.4026C32.7517 25.2162 25.5686 32.4025 16.7589 32.3737ZM7.09991 16.3594C7.09991 17.5835 7.07112 18.8076 7.1287 20.0317C7.15749 20.651 7.20068 21.2558 7.33023 21.8607C7.63253 23.2 8.33788 24.2801 9.48948 25.0434C10.3964 25.6483 11.4328 25.8787 12.5124 25.9507C13.4481 26.0083 14.3838 26.0227 15.3194 26.0083C16.5862 26.0083 17.8529 26.0083 19.1341 26.0083C19.9402 26.0083 20.7463 25.9939 21.5524 25.8931C22.3586 25.7923 23.1215 25.5762 23.8268 25.1586C25.1944 24.3377 25.9573 23.0992 26.2308 21.5439C26.3747 20.723 26.3891 19.9021 26.4035 19.0812C26.4035 16.9642 26.4467 14.8616 26.3747 12.7446C26.3603 12.1686 26.3316 11.5781 26.202 11.0165C25.727 8.84187 24.417 7.47373 22.229 6.94088C21.4085 6.73926 20.5736 6.72487 19.7387 6.71047C18.2848 6.68166 16.8309 6.69606 15.377 6.69606C14.2254 6.69606 13.0738 6.68166 11.9366 6.82568C11.2169 6.91208 10.5115 7.0993 9.87813 7.45933C8.52501 8.20821 7.71889 9.36031 7.35902 10.8437C7.17188 11.6789 7.1431 12.5142 7.1287 13.3639C7.08552 14.372 7.09991 15.3657 7.09991 16.3594Z" fill="#AE967E"/>
<path d="M24.7058 16.374C24.7058 17.2237 24.7201 18.0734 24.7058 18.9087C24.6914 19.6864 24.6914 20.4497 24.5618 21.213C24.3891 22.2643 23.8996 23.1284 22.964 23.6901C22.417 24.0069 21.8268 24.1653 21.1934 24.2085C19.4372 24.3525 17.681 24.2805 15.9248 24.2949C15.2627 24.2949 14.6005 24.3093 13.9383 24.2805C13.2186 24.2517 12.4844 24.2517 11.7647 24.1221C10.2244 23.8197 9.21678 22.7828 8.95767 21.2274C8.88569 20.7809 8.8569 20.3201 8.84251 19.8592C8.79932 19.0815 8.82811 18.3182 8.81372 17.5405C8.79932 16.8925 8.79932 16.23 8.79932 15.5819C8.79932 14.7898 8.79932 14.0121 8.82811 13.2201C8.8569 12.5288 8.8569 11.8375 9.01524 11.175C9.24556 10.1957 9.76379 9.43242 10.6419 8.94277C11.1457 8.66913 11.7071 8.52511 12.2685 8.46751C13.2186 8.3667 14.1686 8.3811 15.1331 8.3811C15.8241 8.3811 16.515 8.3667 17.2204 8.3667C18.0841 8.3667 18.9478 8.3667 19.8115 8.3955C20.5024 8.4099 21.1934 8.42431 21.8843 8.58272C23.3526 8.92836 24.2307 9.85007 24.533 11.319C24.6338 11.7943 24.6482 12.2839 24.677 12.7736C24.7202 13.9833 24.6914 15.1787 24.7058 16.374ZM11.7935 16.3452C11.7935 19.0383 13.9383 21.285 16.7165 21.2994C19.466 21.3138 21.6828 19.1247 21.6828 16.3596C21.6828 13.5369 19.4228 11.4054 16.7309 11.4054C14.0247 11.4054 11.8079 13.6233 11.7935 16.3452ZM23.0359 11.2038C23.0359 10.5701 22.5465 10.0661 21.9131 10.0517C21.2798 10.0373 20.7759 10.5557 20.7759 11.1894C20.7759 11.8231 21.2654 12.3272 21.8987 12.3272C22.5465 12.3416 23.0359 11.8519 23.0359 11.2038Z" fill="#AE967E"/>
<path d="M16.7584 13.1045C18.5434 13.1045 20.0117 14.5733 19.9973 16.3589C19.9973 18.1445 18.529 19.6133 16.744 19.6133C14.959 19.6133 13.4907 18.1445 13.4907 16.3445C13.5051 14.5589 14.959 13.1045 16.7584 13.1045Z" fill="#AE967E"/>
</svg>
