<?xml version="1.0" encoding="utf-8"?>
<!-- Generator: Adobe Illustrator 25.2.0, SVG Export Plug-In . SVG Version: 6.00 Build 0)  -->
<svg version="1.1" id="Layer_1" xmlns="http://www.w3.org/2000/svg" xmlns:xlink="http://www.w3.org/1999/xlink" x="0px" y="0px"
	 viewBox="0 0 681 303.4" style="enable-background:new 0 0 681 303.4;" xml:space="preserve">
<style type="text/css">
	.st0{opacity:0.8;fill:#E4F0F9;enable-background:new    ;}
	.st1{opacity:0.5;fill:#417A9A;}
	.st2{font-family:'Montserrat-Regular';}
	.st3{font-size:30px;}
</style>
<g id="Background">
	<path class="st0" d="M144.7,22.3c29.6-3.3,44.5,1.3,77.9-8.3c16.2-4.7,26.5-9.8,47.3-12.5c6.8-0.9,22.8-2.6,48.7,0
		c23.1,2.4,43.8,7.2,77.8,18.1c60,19.3,61.4,25.5,90.4,32c47.2,10.5,56.4-8.7,89,2.8c37.6,13.2,57.7,46.3,70.9,68.1
		c16.4,27.1,47.8,78.9,27.8,122.4c-24.6,53.5-110.1,57.7-125.1,58.4c-64.9,3.1-75.6-27.1-146-25c-58.5,1.7-55.7,22.7-111.3,22.2
		c-56.9-0.5-55.6-22.4-148.8-37.5c-32.7-5.3-54.8-6.1-83.4-22.2c-14.6-8.2-37.2-20.9-50.1-45.9C-10.9,154.2,3.4,100,32.1,68.2
		C65.5,31.1,117.5,25.3,144.7,22.3z"/>
</g>
<text transform="matrix(1 0 0 1 215.7124 166.1828)" class="st1 st2 st3">COMING SOON</text>
</svg>
