<?xml version="1.0" encoding="utf-8"?>
<!-- Generator: Adobe Illustrator 25.2.0, SVG Export Plug-In . SVG Version: 6.00 Build 0)  -->
<svg version="1.1" id="Layer_1" xmlns="http://www.w3.org/2000/svg" xmlns:xlink="http://www.w3.org/1999/xlink" x="0px" y="0px"
	 viewBox="0 0 30.8 16.7" style="enable-background:new 0 0 30.8 16.7;" xml:space="preserve">
<style type="text/css">
	.st0{fill:#F9F3E9;}
</style>
<path class="st0" d="M5.9,4C5.1,4,4.4,4.4,4.1,5.1L2.5,8.8c0,0.1-0.1,0.2-0.1,0.2v4.1c0,0.8,0.7,1.5,1.5,1.5H15
	c0.8,0,1.5-0.7,1.5-1.5V9c0-0.1,0-0.2-0.1-0.2c-0.5-1.2-1.1-2.5-1.6-3.7c-0.3-0.7-1-1.2-1.8-1.2H12c-0.3,0-0.5,0.2-0.5,0.5
	C11.5,4.8,11.7,5,12,5h1.1c0.4,0,0.7,0.2,0.8,0.5l1.3,3H13c-0.5,0-1,0.3-1.2,0.8l-0.5,1.1c-0.1,0.1-0.2,0.2-0.2,0.2H8
	c-0.1,0-0.2-0.1-0.2-0.2L7.3,9.2C7,8.8,6.6,8.5,6.1,8.5H3.7l1.3-3C5.2,5.1,5.5,5,5.9,5H7c0.3,0,0.5-0.2,0.5-0.5C7.5,4.1,7.3,4,7,4
	H5.9z M3.4,9.5H6c0.1,0,0.2,0.1,0.2,0.2l0.5,1.1C7,11.2,7.5,11.5,8,11.5h3c0.5,0,1-0.3,1.2-0.8l0.5-1.1c0.1-0.1,0.2-0.2,0.2-0.2h2.6
	v3.5c0,0.3-0.2,0.5-0.5,0.5H4c-0.3,0-0.5-0.2-0.5-0.5C3.4,13.1,3.4,9.5,3.4,9.5z"/>
<path class="st0" d="M9.5,1.9C9.2,1.9,9,2.1,9,2.4v4.7L8.3,6.5c-0.2-0.2-0.5-0.2-0.7,0C7.4,6.7,7.4,7,7.7,7.1l1.5,1.5
	c0.2,0.2,0.5,0.2,0.7,0l1.5-1.5c0.2-0.2,0.2-0.5,0-0.7c-0.2-0.2-0.5-0.2-0.7,0l-0.6,0.6V2.4C10,2.1,9.8,1.9,9.5,1.9z"/>
</svg>
