<?xml version="1.0" encoding="utf-8"?>
<!-- Generator: Adobe Illustrator 25.2.0, SVG Export Plug-In . SVG Version: 6.00 Build 0)  -->
<svg version="1.1" id="Layer_1" xmlns="http://www.w3.org/2000/svg" xmlns:xlink="http://www.w3.org/1999/xlink" x="0px" y="0px"
	 viewBox="0 0 33.9 21" style="enable-background:new 0 0 33.9 21;" xml:space="preserve">
<style type="text/css">
	.st0{clip-path:url(#SVGID_2_);}
	.st1{fill-rule:evenodd;clip-rule:evenodd;fill:#F9F3E9;}
</style>
<g>
	<defs>
		<rect id="SVGID_1_" y="0.6" width="19.7" height="19.7"/>
	</defs>
	<clipPath id="SVGID_2_">
		<use xlink:href="#SVGID_1_"  style="overflow:visible;"/>
	</clipPath>
	<g class="st0">
		<path class="st1" d="M9.9,1.2c-3.7,0-6.8,3-6.8,6.8c0,1.7,0.9,4,2,6c1.5,2.7,3.4,5.1,3.4,5.1c0.4,0.4,0.9,0.7,1.4,0.7
			c0.6,0,1.1-0.3,1.4-0.7c0,0,1.9-2.3,3.4-5.1c1.1-2,2-4.2,2-6C16.7,4.3,13.6,1.2,9.9,1.2z M9.9,2.5c3.1,0,5.6,2.5,5.6,5.6
			c0,1.6-0.8,3.6-1.8,5.4c-1.4,2.6-3.3,4.9-3.3,4.9c-0.1,0.1-0.3,0.2-0.5,0.2c-0.2,0-0.4-0.1-0.5-0.2c0,0-1.8-2.3-3.3-4.9
			c-1-1.8-1.8-3.8-1.8-5.4C4.3,5,6.8,2.5,9.9,2.5z"/>
		<path class="st1" d="M9.9,4.9C8.2,4.9,6.8,6.3,6.8,8s1.4,3.1,3.1,3.1c1.7,0,3.1-1.4,3.1-3.1S11.6,4.9,9.9,4.9z M9.9,6.2
			c1,0,1.9,0.8,1.9,1.9s-0.8,1.9-1.9,1.9C8.9,9.9,8,9.1,8,8S8.9,6.2,9.9,6.2z"/>
	</g>
</g>
</svg>
