<?xml version="1.0" encoding="utf-8"?>
<!-- Generator: Adobe Illustrator 25.2.0, SVG Export Plug-In . SVG Version: 6.00 Build 0)  -->
<svg version="1.1" id="Layer_1" xmlns="http://www.w3.org/2000/svg" xmlns:xlink="http://www.w3.org/1999/xlink" x="0px" y="0px"
	 viewBox="0 0 425.3 108.9" style="enable-background:new 0 0 425.3 108.9;" xml:space="preserve">
<style type="text/css">
	.st0{fill:#FFFFFF;stroke:#000000;stroke-width:2;stroke-linejoin:bevel;stroke-miterlimit:10;}
	.st1{fill:#FFFFFF;stroke:#000000;stroke-width:2;stroke-linecap:round;stroke-linejoin:round;stroke-miterlimit:10;}
	.st2{fill:none;stroke:#000000;stroke-width:2;stroke-linecap:round;stroke-linejoin:round;stroke-miterlimit:10;}
	.st3{fill:none;stroke:#000000;stroke-width:1.2;stroke-linecap:round;stroke-linejoin:round;stroke-miterlimit:10;}
	.st4{fill:#D6D6D6;stroke:#000000;stroke-width:2;stroke-miterlimit:10;}
	.st5{fill:#D6D6D6;stroke:#000000;stroke-width:2;stroke-linejoin:bevel;stroke-miterlimit:10;}
	.st6{fill:none;stroke:#000000;stroke-width:2;stroke-miterlimit:10;}
</style>
<g>
	<path class="st0" d="M412.4,19.1v70.7c0,10.6-8.5,19.1-19.1,19.1H139.2c-10.5,0-19.1-8.5-19.1-19.1v-12L80.4,77l39.7-15.6V19.1
		c0-10.5,8.6-19.1,19.1-19.1h254.1C403.8,0,412.4,8.6,412.4,19.1z"/>
	<path class="st1" d="M62.8,84l-5-12l-7.2-17.4c-0.1-0.5,0.2-0.8,0.7-0.7l15.3,4.4c3.2,0.9,6.1-2,5.1-5.1
		c-1.4-4.8-4.3-12.6-10.3-24.6C49,3.2,50.2-7.1,20.3,5.2S2.1,47.9,2.1,47.9L17.5,104c0.8,2.9,3.4,4.9,6.3,4.9h43.5
		c2.8,0,4.8-2.9,3.7-5.5L62.8,84z M36.1,26.7c-1.2,0.4-2.6-0.9-3.2-2.8c-0.7-2-0.4-3.9,0.8-4.2s2.6,0.9,3.2,2.8
		C37.5,24.4,37.1,26.3,36.1,26.7z"/>
	<path class="st2" d="M56.9,70.9c0,0-6.4,2.6-18.9-0.4c0,0,10.5,18.9,25,13.4"/>
	<path class="st3" d="M36.1,26.7c-1.2,0.4-2.6-0.9-3.2-2.8c-0.7-2-0.4-3.9,0.8-4.2s2.6,0.9,3.2,2.8C37.5,24.4,37.1,26.3,36.1,26.7z"
		/>
	<path d="M36.1,26.7c-1.2,0.4-2.6-0.9-3.2-2.8c-0.7-2-0.4-3.9,0.8-4.2s2.6,0.9,3.2,2.8C37.5,24.4,37.1,26.3,36.1,26.7z"/>
</g>
<path class="st4" d="M144.5,96.1c-2.2,4.2-6.9,2.2-6.9,2.2c-1-0.3-2.1-1.4-3.1-3c-1-1.8-1.9-18.5-1.9-36.8c0-23.3-1.4-49,6-49
	C147.7,9.5,146.8,92,144.5,96.1z"/>
<path class="st4" d="M157,21.6v0.1c0,0,3.2,1.6,6.2,6.7C160.2,23.3,157,21.7,157,21.6z"/>
<path class="st4" d="M172.5,20c-5-13.4-23.2-10.3-23.2-10.3v88.7c0,0,21.2,8.2,23.9-22.1C175.9,46,177.4,33.4,172.5,20z M166.8,70.3
	c-0.2,0.8-0.5,1.5-0.7,2.2C162.6,82.9,157,86,157,86V21.6c0,0.1,3.2,1.7,6.2,6.8l0,0c0.3,0.5,0.6,1,0.8,1.5c0.1,0.2,0.2,0.4,0.3,0.5
	c0.2,0.4,0.4,0.7,0.5,1.1c2.2,4.9,4,11.9,4,22C168.9,60.4,168.1,65.9,166.8,70.3z"/>
<path class="st4" d="M190.7,96.1c-2.2,4.2-6.9,2.2-6.9,2.2c-1-0.3-2.2-1.4-3.1-3c-1-1.8-1.9-18.5-1.9-36.8c0-23.3-3.1-49,6-49
	C193.9,9.5,193,92,190.7,96.1z"/>
<path class="st4" d="M209.5,8.4c-20,2.2-18.4,91.7,3.4,89.5c9.8,0,14.2-18.1,14.2-37.9C227.1,35.7,220.6,8.5,209.5,8.4z M213.4,79
	c-8.7,0.9-10.6-50.8-2.7-51.8c4.7,0.3,7.8,18,7.8,32.7C218.5,70.2,217,79,213.4,79z"/>
<path class="st4" d="M255.2,67.7c-1.6,2.4-6.7-0.6-8.4,1.3c-1.7,1.8,4.2,30.4-1.5,30.4c-5.8,0-3.6-15.3-3.6-24.1
	c0-8.6-4.3-5.5-7.5-7.6c-3.1-2.2-1.6-8.5-1.6-8.5s17.8,0.1,20.9,0.1C256.6,59.3,256.8,65.1,255.2,67.7z"/>
<path class="st5" d="M255.7,45.9c-1.3,0.9-6.8-0.4-6.8-0.4l0.4-16.3c0,0-1.8,11-3.2,15.5c0,0-1.8,1.4-3.8-0.3
	c-1.3-1.1-2.7-10.9-3.8-15.5c0.6,5.2,0.6,13.4-0.6,15.9c-1,2-5.6,0.9-5.6,0.9s-0.6-27.6-2.8-36.2h7.5c0,0,3.5,10.7,6.8,17.1
	c0,0,1.8-7.9,3.2-17.2h8C255.1,9.3,257.1,45,255.7,45.9z"/>
<path class="st4" d="M265.8,59.4c-1.9,0-3.7-0.2-6.4-0.2c-2.7,0-3.5,39.4-3.5,39.4s3.2,1.2,4.4,0.5c1.2-0.7,1.5-12.1,4.5-12.1
	c2.9,0,4.8,11.3,4.8,11.3s1.5,0.8,3.1-0.1C274.2,97.3,267.7,59.4,265.8,59.4z M265.6,81.6c-0.9,1.5-3.4-0.9-3.4-0.9s0.8-5.1,0.3-7.7
	C262.1,70.3,266.5,80.1,265.6,81.6z"/>
<path class="st4" d="M266.9,9.3c-1.8,0-3.5-0.2-6-0.2s-3.2,36.6-3.2,36.6s3,1.2,4.1,0.5C263,45.5,263.3,35,266,35
	c2.8,0,4.5,10.5,4.5,10.5s1.4,0.7,2.9-0.1C274.8,44.5,268.8,9.3,266.9,9.3z M266.9,28.9c-0.8,1.2-3,0.6-3.6,0.4c0,0,0,0-0.1,0
	c-0.1,0-0.1,0-0.1,0s0.3-4.7,0.9-7.2C264.2,21.3,267.8,27.4,266.9,28.9z"/>
<path class="st4" d="M292.4,36.7c0,12.6-17.6,14.3-17.9-3.3c0,0,1.7-2,4.3-0.8c2.6,1,2.3,9.3,7.7,4.8c5.4-4.6-13.1-7.1-13.1-19.8
	c0-12.6,14-12.5,19-1.3l-5,3.3c0,0-3.5-6.9-7.2-3.3C276.6,19.9,292.4,24.3,292.4,36.7z"/>
<path class="st4" d="M293.1,89.2c0,13.1-18.5,15-18.8-3.5c0,0,1.8-2,4.5-0.9c2.7,1.2,2.4,9.8,8.1,5.1c5.6-4.8-13.7-7.5-13.7-20.7
	s14.7-13,19.9-1.3l-5.2,3.6c0,0-3.7-7.3-7.5-3.6C276.5,71.6,293.1,76.1,293.1,89.2z"/>
<path class="st4" d="M325.6,25.1c-8.9-20.9-26.9-16.2-26.9-16.2s-1,90.9,4.6,90.5c12.6-0.8,3.6-39.6,11.9-41.5
	C323.4,56,334.5,45.9,325.6,25.1z M307.1,45.3c0,0-1.1-15.8-0.9-16.7c0,0,11-7.5,11.6,7.8C318.4,51.8,307.1,45.3,307.1,45.3z"/>
<path class="st4" d="M345.5,8.4c-20.8,2.3-19.1,95,3.5,92.7c10.2,0,14.7-18.7,14.7-39.3C363.7,36.6,357,8.5,345.5,8.4z M349.6,81.5
	c-9,0.9-11-52.6-2.8-53.6c4.8,0.3,8,18.7,8,33.9C354.8,72.5,353.2,81.5,349.6,81.5z"/>
<path class="st5" d="M382.9,30.8c-0.5,5.7-9.6,11.5-9.6,11.6v-0.1C373.3,42.3,382.3,36.6,382.9,30.8z"/>
<path class="st5" d="M382.9,49.1c0,0,14.7-20,4.3-32.4C376.8,4.2,366,9.5,366,9.5s-0.8,87.9,4.6,90.9c13.1,7.4,4.8-35.5,4.8-35.5
	l20.9,35.5C407.2,95.2,382.9,49.1,382.9,49.1z M372.6,23.6L372.6,23.6c0-0.1,6.5-2.2,9.8,4.4c0.3,0.6,0.5,1.2,0.5,1.8
	c0,0.4,0,0.7,0,1.1c-0.6,5.7-9.6,11.5-9.6,11.5L372.6,23.6z"/>
<path class="st6" d="M168.9,53.5c0,6.9-0.8,12.4-2.1,16.8c-0.2,0.8-0.5,1.5-0.7,2.2c-3.5,10.3-9.1,13.4-9.1,13.4V21.6
	c0,0.1,3.2,1.7,6.2,6.8l0,0c0.3,0.5,0.6,1,0.8,1.5c0.1,0.2,0.2,0.4,0.3,0.5c0.2,0.4,0.4,0.7,0.5,1.1
	C167.1,36.4,168.9,43.5,168.9,53.5z"/>
<path class="st6" d="M218.5,59.9c0,10.3-1.5,19-5.1,19c-8.7,1-10.6-50.7-2.7-51.7C215.4,27.5,218.5,45.3,218.5,59.9z"/>
<path class="st6" d="M382.9,29.8c-0.1-0.6-0.2-1.1-0.5-1.7c-3.3-6.6-9.8-4.5-9.8-4.5v-0.1c0,0,6.5-2.1,9.8,4.5
	C382.7,28.6,382.8,29.2,382.9,29.8z"/>
<path class="st4" d="M237.9,30.6"/>
</svg>
