<?xml version="1.0" encoding="utf-8"?>
<!-- Generator: Adobe Illustrator 25.2.0, SVG Export Plug-In . SVG Version: 6.00 Build 0)  -->
<svg version="1.1" id="Layer_1" xmlns="http://www.w3.org/2000/svg" xmlns:xlink="http://www.w3.org/1999/xlink" x="0px" y="0px"
	 viewBox="0 0 29.3 12" style="enable-background:new 0 0 29.3 12;" xml:space="preserve">
<style type="text/css">
	.st0{fill:#F9F3E9;}
</style>
<path class="st0" d="M9,10.8c-1,0-2,0-2.9,0c-1.1,0-2.2,0-3.5,0C1.6,10.8,0.9,10,0.9,9c0-0.9,0-1.7,0-2.4c0-1.6,0-3,0-4.9
	c0-0.6,0.5-1,1.1-1h6c0,0,0,0,0.1,0h5.7c0.7,0,1.2,0.4,1.2,1.1v6l0,1.3c0,0.7-0.2,1.8-1.7,1.8c-0.7,0-1.2,0-1.8,0
	c-0.6,0-1.2,0-1.9,0L9,10.8L9,10.8z M2,8.6C2,8.9,2,9.1,2.1,9.3c0.1,0.2,0.3,0.4,0.6,0.5c0.2,0.1,0.4,0.1,0.6,0.1h0.6
	c0.3,0,0.6,0,0.8,0c0.3,0,0.6,0,0.8,0c0.4,0,0.8,0,1.2,0c0.4,0,0.8,0,1.2,0h4.9c0.2,0,0.4,0,0.6-0.1c0.2-0.1,0.4-0.3,0.6-0.5
	c0.1-0.2,0.2-0.5,0.2-0.7V8.3c0-0.1,0-0.3,0-0.4c0-0.1,0-0.1,0-0.2c0.1-0.9,0-1.9,0-2.7c0-0.2,0-0.4,0-0.6c0-0.4,0-0.8,0-1.1v0
	c0-0.1,0-0.3-0.2-0.3c0,0-0.1,0-0.1,0c-0.1,0-0.2,0.1-0.2,0.1c0,0,0,0,0,0C12.7,4,12,4.7,11.3,5.2l0,0L9.7,6.5
	C9.5,6.6,9.3,6.7,9.1,6.8l0,0C8.6,7.1,8.3,7.2,8,7.2c-0.3,0-0.6-0.1-0.8-0.2C7.1,6.9,6.9,6.8,6.7,6.7c-0.1,0-0.1-0.1-0.2-0.2l0,0
	c0,0,0,0-0.1,0c-0.1,0-0.1-0.1-0.2-0.1l-1.4-1c0,0-0.1-0.1-0.1-0.1C4,4.6,3.4,4,2.9,3.5C2.7,3.4,2.6,3.3,2.5,3.1
	C2.4,3.1,2.4,3,2.3,3L2.2,2.8c0,0-0.1,0-0.1,0c0,0,0,0-0.1,0C2,2.8,2,2.9,2,2.9L2,8.6C1.9,8.6,2,8.6,2,8.6z M2.8,1.5
	C2.7,1.5,2.7,1.5,2.8,1.5C2.7,1.6,2.7,1.6,2.7,1.6l0,0.1c0,0.2,0.1,0.3,0.2,0.4c0,0,0,0,0,0c0,0,0,0,0,0l0,0c0.3,0.4,0.7,0.7,1,1
	l0.2,0.2C5,4.2,6,5.1,7.2,5.9C7.5,6.1,7.7,6.2,8,6.2c0.3,0,0.5-0.1,0.9-0.4C10.6,4.7,12,3.2,13.2,2c0,0,0.2-0.2,0.1-0.3c0,0,0,0,0,0
	c-0.1-0.1-0.2-0.2-0.3-0.2c-0.1,0-0.1,0-0.2,0H2.8L2.8,1.5z"/>
</svg>
