<svg width="33" height="33" viewBox="0 0 33 33" fill="none" xmlns="http://www.w3.org/2000/svg">
<path d="M9.7552 11.03L9.74048 10.9292H10.6672C10.6672 10.9292 20.0672 10.9292 22.7004 10.9292H22.818C22.8769 10.9292 22.9357 10.9292 22.9946 10.9436C23.0534 10.9436 23.2152 10.9724 23.2741 11.0876C23.3182 11.2029 23.2299 11.3037 23.1564 11.3757C21.5382 13.0321 19.6994 14.9045 17.5664 16.3593C17.1398 16.6618 16.8456 16.8202 16.5367 16.8202C16.2425 16.8202 15.9483 16.6618 15.507 16.3881C14.0506 15.4519 12.8003 14.2564 11.594 13.0897L11.3145 12.816C10.8585 12.3839 10.4172 11.9374 10.02 11.5197C10.0053 11.5053 9.99057 11.4909 9.97586 11.4765C9.90231 11.3757 9.78462 11.2605 9.7552 11.03Z" fill="#AE967E"/>
<path d="M24.2615 18.9665C24.2615 19.0529 24.2615 19.1393 24.2763 19.2402C24.291 19.3842 24.3057 19.5426 24.2615 19.7154C24.2615 19.8451 24.2615 19.9747 24.2615 20.1043C24.2615 20.4788 24.188 20.7668 24.0556 21.0117C23.9085 21.2709 23.6731 21.487 23.4083 21.5878C23.173 21.6742 22.9376 21.6886 22.7022 21.6886H22.6581C22.6434 21.6886 22.6287 21.6886 22.5992 21.6886H22.5845C22.4669 21.6886 22.3197 21.6886 22.1579 21.6886C21.849 21.6886 21.5401 21.6886 21.5401 21.6886C21.5401 21.6886 20.2603 21.6886 18.8775 21.6886C17.9801 21.6886 17.0239 21.6886 16.3472 21.6886C15.3322 21.6886 14.3172 21.6742 13.3169 21.6742C12.596 21.6742 11.8605 21.6598 11.1397 21.6598C11.0661 21.6598 10.9779 21.6598 10.8896 21.6598H10.5219C10.5219 21.6598 10.4924 21.6598 10.4483 21.6598H10.3895C10.1541 21.6598 9.90402 21.6454 9.68336 21.559C9.41857 21.4582 9.18319 21.2565 9.03609 20.9829C8.90369 20.738 8.83014 20.4644 8.83014 20.1043H8.81543V12.6294L8.97724 12.7734C9.06551 12.8598 9.15378 12.9463 9.24204 13.0183C9.41857 13.1767 9.56566 13.3207 9.72748 13.4791C10.4336 14.1993 11.2427 14.9626 12.1842 15.798C12.243 15.8556 12.2871 15.8988 12.3165 15.942L14.0965 17.2958C14.2142 17.3534 14.3172 17.4398 14.4202 17.5119C14.5231 17.5983 14.6408 17.6847 14.7585 17.7423C14.9645 17.8287 15.1704 17.9439 15.3469 18.0592C15.7294 18.2896 16.0972 18.3904 16.5091 18.3904C16.9651 18.3904 17.4211 18.2464 17.9213 17.9583L17.9654 17.9295C18.2449 17.7711 18.5244 17.5983 18.7892 17.4254L20.8634 15.8124C20.8781 15.798 20.8781 15.798 20.8928 15.7836C21.9373 14.8906 22.9229 13.9256 23.8202 13.0039C23.8349 12.9895 23.8349 12.9751 23.8496 12.9751C23.8938 12.9174 23.9526 12.8454 24.0556 12.8454C24.0703 12.8454 24.0997 12.8454 24.1144 12.8598C24.291 12.903 24.2763 13.0759 24.2763 13.1623V13.1911C24.2615 13.94 24.2763 14.7034 24.2763 15.4379C24.3057 16.5901 24.3204 17.7855 24.2615 18.9665Z" fill="#AE967E"/>
<path d="M16.3429 0.357666C7.50687 0.357666 0.342896 7.52163 0.342896 16.3577C0.342896 25.1937 7.50687 32.3577 16.3429 32.3577C25.1789 32.3577 32.3429 25.1937 32.3429 16.3577C32.3429 7.52163 25.1789 0.357666 16.3429 0.357666ZM25.3951 20.6532C25.3951 22.1378 24.6744 23.2189 23.0456 23.2189C21.287 23.2189 20.1483 23.2333 18.3177 23.2333H17.5105C14.815 23.2333 12.4798 23.2189 9.26541 23.2189C7.9537 23.2189 7.04561 22.0369 7.04561 20.6532C7.04561 17.2802 7.03119 14.7577 7.04561 10.9378C7.04561 10.0442 7.70866 9.40992 8.66001 9.40992C9.59695 9.40992 10.606 9.40992 11.8456 9.40992C12.5807 9.40992 13.3159 9.40992 14.051 9.40992C14.7861 9.40992 15.5213 9.40992 16.2564 9.40992H16.3429V9.3955H20.4942C21.5465 9.3955 22.5987 9.3955 23.651 9.3955C24.6744 9.3955 25.3663 10.0586 25.3663 11.0532C25.3663 13.6766 25.3663 16.3433 25.3663 18.9234L25.3951 20.6532Z" fill="#AE967E"/>
</svg>
