<?xml version="1.0" encoding="utf-8"?>
<!-- Generator: Adobe Illustrator 25.2.0, SVG Export Plug-In . SVG Version: 6.00 Build 0)  -->
<svg version="1.1" id="Layer_1" xmlns="http://www.w3.org/2000/svg" xmlns:xlink="http://www.w3.org/1999/xlink" x="0px" y="0px"
	 viewBox="0 0 100 96" style="enable-background:new 0 0 100 96;" xml:space="preserve">
<style type="text/css">
	.st0{fill:#417A9A;}
</style>
<path class="st0" d="M95.3,34.8c0-5.3-2-10.3-5.8-14.1C85.9,17,81,15,75.9,15h-6.8v-2.4h9.3V4H66.1v8.6h0V15H37.3v0.2
	c0,0-0.1,0-0.1,0V15h-3.5v0.3c-5,0.5-9.7,2.8-13.3,6.4c-4,4-6.2,9.3-6.2,14.9l0.1,27.3l-6.1,9C4.6,78,3.7,82.9,5.7,86.7
	c1.9,3.6,6,5.5,11.7,5.5c11.3,0,26-8,32.7-17.8l1.1-1.7V96h3V68.4l3-4.4h4v32h3V64h31L95.3,34.8z M75.3,7v2.6h-6.3V7.4h0V7H75.3z
	 M55.1,36.5l0,2.6l-10.9,8.1L27.8,35h27.2C55.1,35.5,55.1,36,55.1,36.5z M26.2,37.5l17.4,12.9l0.5,0.7l0.2-0.2l0.2,0.2l0.5-0.7
	l10.2-7.6l0,18.1h-29V37.5z M22.5,23.7c3.6-3.6,8.5-5.6,13.6-5.6C45,18.1,52.4,24,54.5,32H23.2v29h-6l-0.1-24.5
	C17.2,31.7,19.1,27.2,22.5,23.7z M47.6,72.8c-6.2,9.1-19.7,16.5-30.2,16.5c-4.5,0-7.7-1.4-9.1-3.9c-1.4-2.7-0.6-6.7,2.2-10.8
	L17.7,64h5.5h30.4L47.6,72.8z M92.2,61H59.3l0,0h-1l0.1-24.2c0-5.9-2.2-11.5-6.3-15.6c-1.2-1.2-2.6-2.3-4-3.2h18.1v13.1
	c-2.1,0.6-3.7,2.6-3.7,5c0,2.9,2.3,5.2,5.2,5.2c2.9,0,5.2-2.3,5.2-5.2c0-2.3-1.6-4.3-3.7-5V18h6.8c4.3,0,8.4,1.7,11.5,4.8
	c3.2,3.2,4.9,7.4,4.9,12L92.2,61z M67.6,33.9c1.2,0,2.2,1,2.2,2.2c0,1.2-1,2.2-2.2,2.2c-1.2,0-2.2-1-2.2-2.2
	C65.4,34.9,66.3,33.9,67.6,33.9z"/>
</svg>
