<svg xmlns="http://www.w3.org/2000/svg" xmlns:xlink="http://www.w3.org/1999/xlink" version="1.1" x="0px" y="0px" viewBox="0 0 100 125" enable-background="new 0 0 100 100" xml:space="preserve"><path d="M95.316,34.754c0.021-5.324-2.027-10.325-5.77-14.083c-3.658-3.673-8.511-5.696-13.664-5.696h-6.818v-2.417h9.263V4H66.063  v8.558h0.002v2.417H37.259v0.169c-0.029-0.001-0.058,0-0.087-0.002v-0.167h-3.476v0.286c-5.034,0.547-9.686,2.753-13.293,6.367  c-4.022,4.031-6.231,9.322-6.22,14.901l0.056,27.272l-6.116,8.974c-3.535,5.188-4.379,10.129-2.377,13.916  c1.888,3.572,6.045,5.539,11.707,5.539c11.329,0,25.977-7.969,32.652-17.766l1.135-1.663V96h3V68.4l2.988-4.385h3.968V96h3V64.016  h30.995L95.316,34.754z M75.327,7v2.558h-6.263V7.353h-0.002V7H75.327z M55.143,36.529l0.006,2.596l-10.89,8.123L27.837,35h27.224  C55.104,35.505,55.143,36.013,55.143,36.529z M26.197,37.519l17.35,12.94l0.509,0.682l0.203-0.15l0.203,0.15l0.509-0.682  l10.187-7.598l0.037,18.138H26.197V37.519z M22.527,23.747c3.624-3.631,8.466-5.63,13.636-5.63c8.834,0,16.266,5.917,18.366,13.883  H23.197v28.999h-5.962l-0.051-24.476C17.174,31.746,19.072,27.21,22.527,23.747z M47.627,72.775  C41.444,81.85,27.908,89.23,17.454,89.23c-4.496,0-7.711-1.399-9.055-3.941c-1.436-2.717-0.633-6.662,2.204-10.824l7.133-10.466  h5.461h30.413L47.627,72.775z M92.204,61.016H59.272l0.011-0.017h-1.035l0.111-24.235c0.027-5.938-2.221-11.484-6.328-15.621  c-1.224-1.23-2.572-2.291-4.018-3.168h18.051v13.138c-2.137,0.648-3.707,2.614-3.707,4.96c0,2.869,2.336,5.205,5.207,5.205  c2.869,0,5.205-2.336,5.205-5.205c0-2.346-1.569-4.311-3.705-4.96V17.975h6.818c4.35,0,8.447,1.71,11.538,4.813  c3.175,3.188,4.914,7.434,4.896,11.954L92.204,61.016z M67.564,33.865c1.216,0,2.205,0.99,2.205,2.207  c0,1.216-0.989,2.205-2.205,2.205c-1.217,0-2.207-0.989-2.207-2.205C65.357,34.855,66.348,33.865,67.564,33.865z"/><text x="0" y="115" fill="#000000" font-size="5px" font-weight="bold" font-family="'Helvetica Neue', Helvetica, Arial-Unicode, Arial, Sans-serif">Created by Nikita Kozin</text><text x="0" y="120" fill="#000000" font-size="5px" font-weight="bold" font-family="'Helvetica Neue', Helvetica, Arial-Unicode, Arial, Sans-serif">from the Noun Project</text></svg>