<?xml version="1.0" encoding="utf-8"?>
<!-- Generator: Adobe Illustrator 25.2.0, SVG Export Plug-In . SVG Version: 6.00 Build 0)  -->
<svg version="1.1" id="Layer_1" xmlns="http://www.w3.org/2000/svg" xmlns:xlink="http://www.w3.org/1999/xlink" x="0px" y="0px"
	 viewBox="0 0 29.3 16" style="enable-background:new 0 0 29.3 16;" xml:space="preserve">
<style type="text/css">
	.st0{fill:#F9F3E9;}
</style>
<path class="st0" d="M11.1,14.9c-0.5,0-1-0.1-1.6-0.2c-1.8-0.5-3.7-1.7-5.3-3.4C2.5,9.7,1.4,7.7,1.1,6c-0.4-2,0.1-3.6,1.6-4.6
	c0.9-0.6,1.5-0.6,1.9-0.6c0.3,0.1,0.8,0.3,1.1,1C5.8,2,5.9,2.3,6.1,2.5c0.7,1.2,1.1,2.1,0.4,2.9l0,0l0,0C6.2,5.5,6.1,5.6,6,5.7
	C5.6,5.9,5.2,6.1,5.1,6.3C5,6.4,5,6.4,5.1,6.6l0,0c0.8,1.8,2.2,3.3,4.1,4.2l0,0c0.1,0.1,0.2,0.1,0.9-0.7c0.1-0.1,0.2-0.3,0.4-0.4
	l0,0l0,0c0.9-0.7,1.8-0.1,3.2,0.6c0.2,0.1,0.3,0.2,0.5,0.3c0.7,0.4,0.9,0.8,0.9,1.2c0.1,0.6-0.1,1.2-0.7,1.8l0,0
	C13.5,14.5,12.4,14.9,11.1,14.9z M3.3,2.2C2.2,3,1.8,4.2,2.1,5.8c0.7,3.3,4.3,7,7.7,7.9c1.6,0.4,2.9,0.1,3.8-0.9
	c0.3-0.4,0.5-0.7,0.4-1c0-0.2-0.2-0.3-0.4-0.4l0,0c-0.2-0.1-0.3-0.2-0.5-0.3c-1.1-0.7-1.6-0.9-1.9-0.7c-0.1,0.1-0.2,0.2-0.3,0.4
	c-0.6,0.7-1.3,1.6-2.3,1C6.6,10.7,5,9,4.1,7c-0.3-0.5-0.2-1,0.1-1.4c0.3-0.3,0.6-0.5,1.1-0.8c0.1-0.1,0.2-0.1,0.3-0.2
	C5.9,4.4,5.7,4,5.1,3C5,2.8,4.9,2.5,4.7,2.3l0,0C4.6,2,4.5,1.9,4.3,1.8C4,1.8,3.7,1.9,3.3,2.2z"/>
</svg>
